<?xml version="1.0" standalone="no"?>
<!DOCTYPE svg PUBLIC "-//W3C//DTD SVG 20010904//EN"
 "http://www.w3.org/TR/2001/REC-SVG-20010904/DTD/svg10.dtd">
<svg version="1.0" xmlns="http://www.w3.org/2000/svg"
 width="478.000000pt" height="478.000000pt" viewBox="0 0 478.000000 478.000000"
 preserveAspectRatio="xMidYMid meet">
<metadata>
Created by potrace 1.11, written by Peter Selinger 2001-2013
</metadata>
<g transform="translate(0.000000,478.000000) scale(0.100000,-0.100000)"
fill="#000000" stroke="none">
<path d="M2748 4760 c-1 -5 -12 -11 -23 -13 -11 -1 -25 -6 -32 -10 -6 -4 -14
-3 -18 3 -4 6 -13 7 -23 1 -26 -13 -122 -21 -122 -11 0 6 -7 10 -15 10 -8 0
-15 -4 -15 -10 0 -34 -82 -68 -93 -37 -3 9 -9 9 -28 -1 -14 -7 -45 -15 -69
-18 -25 -2 -61 -6 -80 -9 -19 -2 -57 -7 -85 -10 -32 -4 -55 -13 -63 -25 -12
-16 -16 -17 -40 -4 -37 19 -49 18 -63 -7 -9 -17 -7 -25 11 -44 21 -22 21 -24
4 -24 -34 1 -57 -7 -69 -24 -7 -9 -17 -17 -23 -17 -6 0 -16 -9 -22 -20 -6 -11
-8 -20 -5 -20 3 0 1 -9 -5 -20 -14 -26 -50 -27 -50 -1 0 10 -7 24 -15 31 -20
16 -106 14 -117 -3 -4 -6 -8 -8 -8 -4 0 5 -12 -1 -26 -12 -15 -11 -30 -18 -35
-15 -5 3 -9 2 -10 -3 -1 -18 -8 -45 -11 -48 -2 -2 -16 -6 -32 -9 -15 -3 -33
-10 -40 -15 -7 -6 -16 -8 -19 -5 -6 7 -61 -29 -90 -58 -10 -10 -20 -28 -22
-39 -6 -30 -31 -66 -82 -119 -23 -25 -43 -51 -43 -58 0 -7 -16 -37 -36 -66
-19 -30 -37 -62 -39 -72 -2 -11 -4 -20 -5 -21 -2 -2 -3 -6 -4 -10 -1 -5 -6
-15 -11 -23 -5 -8 -10 -21 -12 -29 -1 -8 -7 -17 -13 -21 -7 -4 -10 -21 -7 -39
4 -23 1 -34 -13 -41 -10 -5 -25 -27 -33 -49 -19 -46 -54 -180 -62 -237 -4 -21
-10 -55 -15 -74 -18 -69 -20 -83 -35 -265 -3 -38 -8 -79 -11 -90 -2 -11 -6
-40 -8 -65 -5 -51 -15 -133 -22 -170 -8 -45 -14 -114 -18 -204 -3 -91 -14
-113 -45 -97 -15 8 -30 7 -78 -2 -53 -11 -69 -38 -37 -61 13 -10 11 -16 -16
-51 l-31 -39 4 -211 c2 -115 7 -223 10 -240 3 -16 8 -51 12 -77 3 -26 10 -50
15 -53 4 -3 4 -22 -2 -42 -17 -63 1 -105 84 -198 24 -26 67 -46 155 -71 7 -2
13 -14 14 -26 1 -36 9 -198 12 -245 1 -26 7 -43 14 -43 9 0 11 -13 7 -44 -3
-31 0 -46 11 -56 14 -11 13 -14 -2 -26 -15 -11 -16 -15 -4 -23 10 -6 10 -10 1
-13 -9 -3 -8 -8 4 -20 12 -13 14 -23 7 -41 -6 -14 -8 -27 -5 -29 2 -3 6 -27 8
-53 2 -31 10 -53 21 -61 9 -7 14 -18 10 -24 -11 -17 -12 -124 -2 -137 5 -7 18
-13 28 -13 12 0 16 -5 13 -15 -9 -22 5 -38 21 -25 8 6 26 10 42 8 24 -3 31
-11 48 -59 11 -30 32 -70 48 -88 27 -33 34 -51 18 -51 -5 0 -11 -9 -14 -20 -3
-13 0 -20 9 -20 8 0 14 6 14 13 1 7 6 4 15 -6 9 -12 20 -17 33 -13 23 8 41
-11 44 -48 2 -26 28 -43 47 -31 11 6 34 -29 25 -38 -14 -14 29 1 47 16 19 17
20 16 26 -13 4 -20 10 -29 19 -26 7 3 16 0 20 -5 3 -6 17 -9 31 -6 13 2 30 -1
37 -9 11 -10 18 -10 42 2 23 12 34 13 54 4 63 -30 259 -84 269 -75 2 3 11 -1
19 -7 17 -14 35 -19 82 -20 19 -1 38 -5 41 -11 4 -5 23 -10 43 -12 42 -2 47
-5 49 -34 1 -18 3 -19 12 -8 16 22 47 34 85 31 19 -1 43 2 53 7 9 6 17 6 16 2
-3 -19 2 -23 20 -13 14 7 20 7 23 -1 4 -12 46 6 59 25 4 5 11 6 17 2 12 -7 65
16 111 49 19 14 44 25 56 25 12 0 33 8 46 19 24 18 30 21 49 21 5 0 9 5 7 12
-1 7 15 18 36 25 21 7 45 19 53 27 8 8 23 18 34 21 11 3 20 10 20 15 0 5 9 12
21 15 11 4 18 9 15 12 -6 6 42 47 67 56 9 4 17 10 16 14 -6 36 16 48 105 57
33 3 62 9 65 14 3 5 13 11 22 14 9 4 20 21 24 40 4 18 9 39 10 46 2 6 -1 12
-6 12 -5 0 -9 5 -9 11 0 16 -26 39 -44 39 -12 0 -15 9 -14 33 3 37 31 71 70
86 26 10 39 38 53 113 8 37 27 57 60 64 35 6 70 44 43 44 -9 1 -7 5 4 13 21
17 10 33 -22 32 -22 0 -25 5 -26 33 -2 50 33 112 61 112 13 0 30 6 37 13 7 7
29 14 48 16 88 8 144 36 215 108 45 46 99 128 96 148 -1 3 6 19 14 35 9 17 12
30 8 30 -5 0 -3 4 2 8 8 6 46 116 58 168 2 7 8 18 14 25 21 26 50 144 48 199
0 31 5 64 13 77 11 18 11 26 -2 52 -9 17 -16 34 -15 38 5 31 -5 64 -26 87 -28
30 -25 43 13 57 25 10 25 10 6 24 -11 7 -37 16 -57 20 l-37 7 37 20 c52 28 52
27 18 55 -19 16 -26 27 -17 30 19 7 14 30 -13 57 -20 20 -24 31 -19 58 5 29
10 81 13 129 1 9 10 26 21 39 18 21 18 24 4 35 -13 9 -15 23 -10 76 3 35 8 75
11 89 3 14 8 38 10 54 2 15 7 35 9 45 3 9 8 32 11 51 3 19 15 53 27 75 12 22
27 52 35 67 23 45 23 139 0 195 -12 26 -26 51 -32 55 -5 4 -6 8 -2 8 5 0 1 10
-7 22 -9 12 -16 28 -16 35 0 6 -13 40 -29 75 -17 35 -32 75 -35 88 -2 14 -9
44 -14 67 -5 23 -7 44 -5 47 3 2 -4 10 -15 17 -18 11 -19 14 -5 24 14 10 11
15 -18 35 -19 13 -50 42 -70 64 -29 33 -35 45 -27 59 10 19 1 34 -48 83 -14
13 -24 40 -28 70 -9 68 -32 126 -85 217 -25 43 -52 90 -60 104 -7 14 -21 27
-30 30 -10 2 -28 25 -42 49 -22 42 -26 45 -56 39 -28 -5 -36 -1 -82 53 -67 77
-90 89 -129 69 -21 -10 -33 -12 -41 -4 -6 6 -24 11 -41 12 -41 2 -46 8 -49 55
-1 23 -21 28 -21 6 0 -24 -16 -27 -56 -9 -22 9 -46 18 -54 20 -33 8 -45 12
-45 13 0 8 -56 7 -60 -1 -11 -16 -50 -10 -63 11 -13 21 -28 26 -34 10z"/>
</g>
</svg>
